<?xml version="1.0" encoding="UTF-8"?>
<!DOCTYPE svg PUBLIC "-//W3C//DTD SVG 1.1//EN" "http://www.w3.org/Graphics/SVG/1.1/DTD/svg11.dtd">
<!-- Creator: CorelDRAW 2019 (64-Bit) -->
<svg xmlns="http://www.w3.org/2000/svg" xml:space="preserve" width="38.641mm" height="55.4912mm" version="1.1" style="shape-rendering:geometricPrecision; text-rendering:geometricPrecision; image-rendering:optimizeQuality; fill-rule:evenodd; clip-rule:evenodd"
viewBox="0 0 129.31 185.7"
 xmlns:xlink="http://www.w3.org/1999/xlink">
 <defs>
  <style type="text/css">
   <![CDATA[
    .fil2 {fill:#171E45}
    .fil0 {fill:#273061}
    .fil1 {fill:#273061;fill-rule:nonzero}
   ]]>
  </style>
 </defs>
 <g id="Слой_x0020_1">
  <metadata id="CorelCorpID_0Corel-Layer"/>
  <g id="_2517670749840">
   <polygon class="fil0" points="-0,123.93 20.01,113.8 36.36,125.78 109.3,88.88 129.31,103.54 36.36,150.58 "/>
   <path class="fil1" d="M7.67 30.83l9.76 -5.1c0,19.36 -4.8,28.22 12.55,34.68l-10.79 5.46c-2.29,-0.9 -4.23,-1.89 -7.3,-5.25 -6.29,-6.89 -4.21,-19.08 -4.21,-29.78z"/>
   <polygon class="fil2" points="-0,89.69 92.95,42.66 129.31,69.31 36.36,116.34 "/>
   <polygon class="fil2" points="-0,159.05 20.01,148.92 36.36,160.9 109.3,124 129.31,138.66 36.36,185.7 "/>
   <path class="fil1" d="M33.1 17.97l9.76 -5.1c0,19.36 -4.8,28.22 12.55,34.68l-10.79 5.46c-2.29,-0.9 -4.23,-1.89 -7.3,-5.25 -6.29,-6.89 -4.21,-19.08 -4.21,-29.78z"/>
   <path class="fil1" d="M58.53 5.1l9.76 -5.1c0,19.36 -4.8,28.22 12.55,34.68l-10.79 5.46c-2.29,-0.9 -4.23,-1.89 -7.3,-5.25 -6.29,-6.89 -4.21,-19.08 -4.21,-29.78z"/>
  </g>
 </g>
</svg>
