<?xml version="1.0" encoding="UTF-8"?>
<!DOCTYPE svg PUBLIC "-//W3C//DTD SVG 1.1//EN" "http://www.w3.org/Graphics/SVG/1.1/DTD/svg11.dtd">
<!-- Creator: CorelDRAW 2019 (64-Bit) -->
<svg xmlns="http://www.w3.org/2000/svg" xml:space="preserve" width="42.8928mm" height="53.6542mm" version="1.1" style="shape-rendering:geometricPrecision; text-rendering:geometricPrecision; image-rendering:optimizeQuality; fill-rule:evenodd; clip-rule:evenodd"
viewBox="0 0 112.14 140.28"
 xmlns:xlink="http://www.w3.org/1999/xlink">
 <defs>
  <style type="text/css">
   <![CDATA[
    .fil1 {fill:#171E45}
    .fil0 {fill:#273061}
    .fil2 {fill:white;fill-rule:nonzero}
   ]]>
  </style>
 </defs>
 <g id="Слой_x0020_1">
  <metadata id="CorelCorpID_0Corel-Layer"/>
  <g id="_2554392725360">
   <path class="fil0" d="M56.07 140.28c25.52,-14.66 55.99,-25.66 56.07,-69.98l0 -60.36c-23.32,0 -43.88,-3.94 -56.07,-9.94 -12.19,6 -32.75,9.94 -56.07,9.94l0 60.19c0,44.46 30.52,55.47 56.07,70.15z"/>
   <path class="fil1" d="M56.07 140.28c25.52,-14.66 55.99,-25.66 56.07,-69.98l0 -60.36c-23.32,0 -43.88,-3.94 -56.07,-9.94l0 140.28 0 0z"/>
   <polygon class="fil2" points="79.2,23.2 79.2,35.25 53.68,111.04 39.88,111.04 65.27,35.75 32.95,35.75 32.95,23.2 "/>
  </g>
 </g>
</svg>
