<?xml version="1.0" encoding="UTF-8"?>
<!DOCTYPE svg PUBLIC "-//W3C//DTD SVG 1.1//EN" "http://www.w3.org/Graphics/SVG/1.1/DTD/svg11.dtd">
<!-- Creator: CorelDRAW 2019 (64-Bit) -->
<svg xmlns="http://www.w3.org/2000/svg" xml:space="preserve" width="44.6157mm" height="44.1442mm" version="1.1" style="shape-rendering:geometricPrecision; text-rendering:geometricPrecision; image-rendering:optimizeQuality; fill-rule:evenodd; clip-rule:evenodd"
viewBox="0 0 173.28 171.45"
 xmlns:xlink="http://www.w3.org/1999/xlink">
 <defs>
  <style type="text/css">
   <![CDATA[
    .fil1 {fill:#171E45}
    .fil0 {fill:#273061}
   ]]>
  </style>
 </defs>
 <g id="Слой_x0020_1">
  <metadata id="CorelCorpID_0Corel-Layer"/>
  <g id="_2554390451968">
   <path class="fil0" d="M135.19 136.42c-5.81,10.5 -22.45,18.6 -45.85,15.37 0,0 31.23,-4.72 45.85,-15.37zm-135.19 -37.24c20.07,-13.84 38.37,-12.31 53.98,3.92 -6.42,7.45 -6.42,19.87 -6.42,19.87 3.97,-10.3 10.8,-14.85 10.8,-14.85 18.95,-15.1 46.58,-12.74 54.87,0.87 0.29,0.48 6.63,7.26 9.33,9.01 -2.55,-6.8 -6.67,-11.25 -6.61,-12.96 0.37,-10.93 1.76,-48.97 2.31,-54.48 0.63,-6.37 5.11,-9.16 -0.32,-7.99 -5.43,1.17 -9.26,1.6 -12.88,-2.24 -3.62,-3.83 -7.35,0.85 -11.82,5 -4.47,4.15 -9.37,-2.63 -12.56,-6.43 -3.19,-3.8 -6.6,-8.05 -7.45,-9.33 -0.85,-1.28 -1.38,-4.9 2.87,-11.39 4.26,-6.49 13.42,-16.4 13.42,-16.4 0,0 1.6,-4.05 8.62,0 7.03,4.05 31.73,14.16 39.5,16.4 7.77,2.24 7.03,4.05 7.77,10.86 0.75,6.81 8.63,37.69 20.13,67.08 11.5,29.39 7.56,37.16 4.9,40.57 -2.65,3.39 -32.08,15.25 -43.23,21.08 -24.81,12.99 -53.34,12.67 -73.04,5.01 0,0 -11.84,12.14 -31.88,7.67 -0.32,-0.07 -1.58,-3.86 -3.36,-9.64 9.49,-2.79 16.25,-7.96 19.53,-13.9 -5.47,3.98 -13.25,7.14 -20.86,9.52 -6.24,-20.73 -16.51,-57.15 -17.57,-57.27z"/>
   <path class="fil1" d="M79.62 37.68c0,0 6.12,8.31 11.95,0.18 5.82,-8.14 8.73,-8.74 12.93,-2.14 4.2,6.6 8.56,5.99 14.9,4.88 6.34,-1.11 5.22,0.17 4.37,8.91 -0.86,8.73 1.41,42.69 2.55,55.88 1.14,13.19 -2.02,13.73 -3.41,12.98 -1.39,-0.75 -0.52,-0.37 -0.86,-0.71 0.18,0.13 0.35,0.25 0.51,0.36 -2.55,-6.8 -6.67,-11.25 -6.61,-12.96 0.37,-10.93 1.76,-48.97 2.31,-54.48 0.63,-6.37 5.11,-9.16 -0.32,-7.99 -5.43,1.17 -9.26,1.6 -12.88,-2.24 -3.62,-3.83 -7.35,0.85 -11.82,5 -4.47,4.15 -9.37,-2.63 -12.56,-6.43 -0.35,-0.41 -0.69,-0.83 -1.04,-1.24zm-25.47 125.11c0,0 -5.53,-2.8 -7.93,-6.08 0,0 -1.34,4.27 1.07,10.84 4.47,-2.3 6.87,-4.76 6.87,-4.76zm25.93 -64.35c-5.78,1.78 -13.4,5.98 -18.96,14.69 -5.55,8.71 -6.29,19.05 -6.29,19.05 0,0 -7.68,-4.37 -7.27,-9.22 3.97,-10.3 10.8,-14.85 10.8,-14.85 6.59,-5.25 14.22,-8.39 21.72,-9.68zm-50.21 -8.47c-3.94,0.45 -9.41,4.03 -14.35,8.82 -4.94,4.78 -8.2,11.42 -9.84,17.39 -2.93,-9.78 -5.21,-16.95 -5.68,-17.01 10.48,-7.23 20.48,-10.26 29.87,-9.2z"/>
  </g>
 </g>
</svg>
