<?xml version="1.0" encoding="UTF-8"?>
<!DOCTYPE svg PUBLIC "-//W3C//DTD SVG 1.1//EN" "http://www.w3.org/Graphics/SVG/1.1/DTD/svg11.dtd">
<!-- Creator: CorelDRAW 2019 (64-Bit) -->
<svg xmlns="http://www.w3.org/2000/svg" xml:space="preserve" width="48.1678mm" height="50.2685mm" version="1.1" style="shape-rendering:geometricPrecision; text-rendering:geometricPrecision; image-rendering:optimizeQuality; fill-rule:evenodd; clip-rule:evenodd"
viewBox="0 0 141.88 148.07"
 xmlns:xlink="http://www.w3.org/1999/xlink">
 <defs>
  <style type="text/css">
   <![CDATA[
    .fil1 {fill:#171E45}
    .fil0 {fill:#273061}
   ]]>
  </style>
 </defs>
 <g id="Слой_x0020_1">
  <metadata id="CorelCorpID_0Corel-Layer"/>
  <g id="_2517663434304">
   <path class="fil0" d="M56.94 81.76l-43.77 -36.41c-4.38,5.27 -7.88,11.42 -10.2,18.31 -4.11,12.24 -3.82,24.9 0.02,36.25l53.95 -18.15z"/>
   <path class="fil0" d="M58.08 0.75l10.9 53.74 16.42 -52.26c-0.2,-0.06 -0.22,-0.07 -0.48,-0.13 -9.87,-2.61 -17.33,-2.44 -26.84,-1.34z"/>
   <path class="fil0" d="M64.51 76.9l-12.78 -63.76c-14.46,2.91 -27.67,10.7 -37.21,22.17l49.99 41.59z"/>
   <path class="fil1" d="M90.58 14.07l-21.25 69.37 72.55 1c0.43,-30.7 -18.81,-59.49 -49.48,-69.78 -1.34,-0.45 -0.47,-0.23 -1.82,-0.6z"/>
   <path class="fil0" d="M66.84 87.5l-52.85 17.78c5.39,15.96 17.91,29.31 35.12,35.08 13.41,4.5 27.34,3.61 39.42,-1.5l-21.69 -51.37z"/>
   <path class="fil1" d="M80.97 93.23l21.91 51.89 1.24 2.95c15.18,-6.41 27.64,-19.06 33.29,-35.91 2.01,-6 3.01,-12.1 3.1,-18.11l-59.54 -0.82z"/>
  </g>
 </g>
</svg>
