<?xml version="1.0" encoding="UTF-8"?>
<!DOCTYPE svg PUBLIC "-//W3C//DTD SVG 1.1//EN" "http://www.w3.org/Graphics/SVG/1.1/DTD/svg11.dtd">
<!-- Creator: CorelDRAW 2019 (64-Bit) -->
<svg xmlns="http://www.w3.org/2000/svg" xml:space="preserve" width="45.6635mm" height="57.4535mm" version="1.1" style="shape-rendering:geometricPrecision; text-rendering:geometricPrecision; image-rendering:optimizeQuality; fill-rule:evenodd; clip-rule:evenodd"
viewBox="0 0 181.68 228.59"
 xmlns:xlink="http://www.w3.org/1999/xlink">
 <defs>
  <style type="text/css">
   <![CDATA[
    .fil0 {fill:#171E45}
    .fil1 {fill:#273061}
   ]]>
  </style>
 </defs>
 <g id="Слой_x0020_1">
  <metadata id="CorelCorpID_0Corel-Layer"/>
  <g id="_2554398593904">
   <path class="fil0" d="M63.2 124.14l-32.86 53.41c-2.11,3.44 -0.45,7.24 2.4,10.09l0 0c2.85,2.85 7.98,1.03 10.09,-2.4l32.86 -53.41c2.11,-3.44 0.45,-7.24 -2.4,-10.09l-0 -0c-2.85,-2.85 -7.98,-1.03 -10.09,2.4z"/>
   <path class="fil1" d="M63.2 124.14l-16.08 26.13 3.34 1.85 16.87 -26.17 -3.88 -2.19c-0.09,0.12 -0.17,0.25 -0.25,0.37z"/>
   <path class="fil0" d="M108.73 0c40.29,0 72.95,32.66 72.95,72.95 0,40.29 -32.66,72.95 -72.95,72.95 -40.29,0 -72.95,-32.66 -72.95,-72.95 0,-40.29 32.66,-72.95 72.95,-72.95zm0 16.95c30.93,0 56,25.07 56,56 0,30.93 -25.07,56 -56,56 -30.93,0 -56.01,-25.07 -56.01,-56 0,-30.93 25.07,-56 56.01,-56z"/>
   <path class="fil1" d="M31.2 155.84l-28.66 46.59c-4.95,8.05 -2.42,18.68 5.63,23.63l0 0c8.05,4.95 18.68,2.42 23.63,-5.63l28.66 -46.59c4.95,-8.05 2.42,-18.68 -5.63,-23.63l0 0c-8.05,-4.95 -18.68,-2.42 -23.63,5.63z"/>
   <path class="fil1" d="M127.89 31.6c11.18,5.55 19.06,15.11 22.75,26.08 3.69,10.96 3.2,23.33 -2.35,34.5l-8.26 -4.08c4.42,-8.91 4.82,-18.76 1.88,-27.49 -2.93,-8.72 -9.2,-16.33 -18.09,-20.74l4.08 -8.26z"/>
   <path class="fil0" d="M108.73 0c40.29,0 72.95,32.66 72.95,72.95 0,40.29 -32.66,72.95 -72.95,72.95 -40.29,0 -72.95,-32.66 -72.95,-72.95 0,-40.29 32.66,-72.95 72.95,-72.95zm0 16.95c30.93,0 56,25.07 56,56 0,30.93 -25.07,56 -56,56 -30.93,0 -56.01,-25.07 -56.01,-56 0,-30.93 25.07,-56 56.01,-56z"/>
   <path class="fil1" d="M108.73 0c11.47,0 22.31,2.65 31.96,7.36l-8.69 14.64c-7.09,-3.24 -14.97,-5.05 -23.27,-5.05 -30.93,0 -56.01,25.07 -56.01,56 0,18.32 8.8,34.58 22.39,44.8l-8.69 14.64c-18.55,-13.23 -30.64,-34.92 -30.64,-59.44 0,-40.29 32.66,-72.95 72.95,-72.95z"/>
   <path class="fil0" d="M7.95 225.93l0.21 0.13c8.01,4.93 18.7,2.39 23.63,-5.63l28.66 -46.59c4.66,-7.57 2.69,-17.43 -4.26,-22.7 6.8,6.99 -7.89,22 -17.94,38.71 -11.13,18.51 -19.67,37.85 -30.3,36.06z"/>
  </g>
 </g>
</svg>
