<?xml version="1.0" encoding="UTF-8"?>
<!DOCTYPE svg PUBLIC "-//W3C//DTD SVG 1.1//EN" "http://www.w3.org/Graphics/SVG/1.1/DTD/svg11.dtd">
<!-- Creator: CorelDRAW 2019 (64-Bit) -->
<svg xmlns="http://www.w3.org/2000/svg" xml:space="preserve" width="44.6155mm" height="56.6936mm" version="1.1" style="shape-rendering:geometricPrecision; text-rendering:geometricPrecision; image-rendering:optimizeQuality; fill-rule:evenodd; clip-rule:evenodd"
viewBox="0 0 121.46 154.34"
 xmlns:xlink="http://www.w3.org/1999/xlink">
 <defs>
  <style type="text/css">
   <![CDATA[
    .fil0 {fill:#171E45;fill-rule:nonzero}
    .fil1 {fill:#273061;fill-rule:nonzero}
   ]]>
  </style>
 </defs>
 <g id="Слой_x0020_1">
  <metadata id="CorelCorpID_0Corel-Layer"/>
  <g id="_2517535901504">
   <path class="fil0" d="M27.55 0l66.36 0c7.58,0 14.47,3.1 19.46,8.09 4.99,4.99 8.09,11.88 8.09,19.46l0 99.25c0,7.58 -3.1,14.47 -8.09,19.46 -4.99,4.99 -11.88,8.09 -19.46,8.09l-66.36 0c-7.58,0 -14.47,-3.1 -19.46,-8.09 -4.99,-4.99 -8.09,-11.88 -8.09,-19.46l0 -99.25c0,-7.58 3.1,-14.47 8.09,-19.46 4.99,-4.99 11.88,-8.09 19.46,-8.09zm66.36 12.32l-66.36 0c-4.18,0 -7.99,1.72 -10.75,4.48 -2.76,2.76 -4.48,6.57 -4.48,10.75l0 99.25c0,4.18 1.72,7.99 4.48,10.75 2.76,2.76 6.57,4.48 10.75,4.48l66.36 0c4.18,0 7.99,-1.72 10.75,-4.48 2.76,-2.76 4.48,-6.57 4.48,-10.75l0 -99.25c0,-4.18 -1.72,-7.99 -4.48,-10.75 -2.76,-2.76 -6.57,-4.48 -10.75,-4.48z"/>
   <path class="fil1" d="M48.51 38.93l48.55 0 0 12.32 -48.55 0 0 -12.32zm0 64.17l48.55 0 0 12.32 -48.55 0 0 -12.32zm0 -32.08l48.55 0 0 12.32 -48.55 0 0 -12.32z"/>
   <path class="fil0" d="M25.19 38.93l12.3 0 0 12.32 -12.3 0 0 -12.32zm0 64.17l12.3 0 0 12.32 -12.3 0 0 -12.32zm0 -32.08l12.3 0 0 12.32 -12.3 0 0 -12.32z"/>
  </g>
 </g>
</svg>
