<?xml version="1.0" encoding="UTF-8"?>
<!DOCTYPE svg PUBLIC "-//W3C//DTD SVG 1.1//EN" "http://www.w3.org/Graphics/SVG/1.1/DTD/svg11.dtd">
<!-- Creator: CorelDRAW 2019 (64-Bit) -->
<svg xmlns="http://www.w3.org/2000/svg" xml:space="preserve" width="8.4667mm" height="5.5564mm" version="1.1" style="shape-rendering:geometricPrecision; text-rendering:geometricPrecision; image-rendering:optimizeQuality; fill-rule:evenodd; clip-rule:evenodd"
viewBox="0 0 41.35 27.13"
 xmlns:xlink="http://www.w3.org/1999/xlink">
 <defs>
  <style type="text/css">
   <![CDATA[
    .fil0 {fill:#FEFEFE}
   ]]>
  </style>
 </defs>
 <g id="Слой_x0020_1">
  <metadata id="CorelCorpID_0Corel-Layer"/>
  <path class="fil0" d="M38.71 26.53l-14.52 -10.83 -1.78 1.42c-1.05,0.83 -2.51,0.79 -3.5,-0.03l-1.61 -1.28 -14.77 10.65c0.74,0.43 1.6,0.67 2.51,0.67l31.28 0c0.86,0 1.68,-0.22 2.39,-0.61zm-2.39 -26.53c0.85,0 1.65,0.21 2.36,0.59l-18 14.35 -18 -14.35c0.7,-0.38 1.51,-0.59 2.36,-0.59l31.28 0zm4.37 2.55c0.42,0.73 0.66,1.58 0.66,2.49l0 17.07c0,0.88 -0.23,1.72 -0.64,2.44l-14.27 -10.64 14.24 -11.36zm-40.11 21.89c-0.37,-0.7 -0.58,-1.49 -0.58,-2.34l0 -17.07c0,-0.9 0.24,-1.75 0.66,-2.49l14.38 11.46 -14.46 10.43z"/>
 </g>
</svg>
