<?xml version="1.0" encoding="UTF-8"?>
<!DOCTYPE svg PUBLIC "-//W3C//DTD SVG 1.1//EN" "http://www.w3.org/Graphics/SVG/1.1/DTD/svg11.dtd">
<!-- Creator: CorelDRAW 2017 -->
<svg xmlns="http://www.w3.org/2000/svg" xml:space="preserve" width="29.2804mm" height="29.2804mm" version="1.1" style="shape-rendering:geometricPrecision; text-rendering:geometricPrecision; image-rendering:optimizeQuality; fill-rule:evenodd; clip-rule:evenodd"
viewBox="0 0 874.8 874.8"
 xmlns:xlink="http://www.w3.org/1999/xlink">
 <defs>
  <style type="text/css">
   <![CDATA[
    .fil0 {fill:none}
    .fil1 {fill:white}
   ]]>
  </style>
 </defs>
 <g id="Слой_x0020_1">
  <metadata id="CorelCorpID_0Corel-Layer"/>
  <g id="_1369150817472">
   <rect class="fil0" x="-0" y="0" width="874.8" height="874.8"/>
   <path class="fil1" d="M753.9 805.88c15.58,0 24.79,-0.68 35.48,-8.3 21.84,-15.81 16.26,-45.95 16.26,-72.22l0 -575.12c0,-44.13 6.26,-81.2 -51.75,-81.2l-575.46 0c-19.22,0 -71.19,-2.73 -85.41,3.75 -28.55,12.97 -24.34,38.78 -24.34,64.26l0 619.02c0,15.58 0.45,24.79 9.1,34.8 6.03,6.94 15.35,14.33 29.46,15.13 808.04,0.45 0.68,0 646.54,0l0 -0.23 0.12 0.12zm-291.71 0.23l114.64 -0.23 0.45 -285.34 95.42 -0.23 14.1 -110.88 -109.75 0 0 -60.84c0,-19.22 0,-36.39 10.01,-49.13 8.64,-11.14 26.95,-14.9 44.81,-15.13 19.67,-0.23 39.24,0 58.91,0 0.91,-8.87 0.91,-95.53 -0.45,-99.51 -31.05,-3.53 -79.15,-6.71 -109.98,-2.73 -35.26,4.44 -60.39,18.54 -78.47,36.62 -48.67,47.99 -38.78,111.11 -39.46,190.72l-95.87 0 0.23 111.11 95.64 0.23 0 285.34 -0.23 0 0 0z"/>
  </g>
 </g>
</svg>
