<?xml version="1.0" encoding="UTF-8"?>
<!DOCTYPE svg PUBLIC "-//W3C//DTD SVG 1.1//EN" "http://www.w3.org/Graphics/SVG/1.1/DTD/svg11.dtd">
<!-- Creator: CorelDRAW 2019 (64-Bit) -->
<svg xmlns="http://www.w3.org/2000/svg" xml:space="preserve" width="8.4666mm" height="8.4665mm" version="1.1" style="shape-rendering:geometricPrecision; text-rendering:geometricPrecision; image-rendering:optimizeQuality; fill-rule:evenodd; clip-rule:evenodd"
viewBox="0 0 33.98 33.98"
 xmlns:xlink="http://www.w3.org/1999/xlink">
 <defs>
  <style type="text/css">
   <![CDATA[
    .fil0 {fill:#FEFEFE}
   ]]>
  </style>
 </defs>
 <g id="Слой_x0020_1">
  <metadata id="CorelCorpID_0Corel-Layer"/>
  <path class="fil0" d="M7.18 0.01l19.62 -0.01c3.95,-0 7.18,3.23 7.18,7.18l0.01 19.62c0,3.95 -3.23,7.18 -7.18,7.18l-19.62 0.01c-3.95,0 -7.18,-3.23 -7.18,-7.18l-0.01 -19.62c-0,-3.95 3.23,-7.18 7.18,-7.18zm16.17 8.44c0.84,-0 1.53,0.68 1.53,1.53 0,0.84 -0.68,1.53 -1.53,1.53 -0.84,0 -1.53,-0.68 -1.53,-1.53 -0,-0.84 0.68,-1.53 1.53,-1.53zm-11.55 -3.85l10.38 -0c1.98,-0 3.79,0.81 5.09,2.11 1.31,1.31 2.12,3.11 2.12,5.09l0 10.38c0,1.98 -0.81,3.79 -2.11,5.09 -1.31,1.31 -3.11,2.12 -5.09,2.12l-10.38 0c-1.98,0 -3.79,-0.81 -5.09,-2.11 -1.31,-1.31 -2.12,-3.11 -2.12,-5.09l-0 -10.38c-0,-1.98 0.81,-3.79 2.11,-5.09 1.31,-1.31 3.11,-2.12 5.09,-2.12zm10.38 1.92l-10.38 0c-1.45,0 -2.77,0.59 -3.73,1.55 -0.96,0.96 -1.55,2.28 -1.55,3.73l0 10.38c0,1.45 0.59,2.77 1.55,3.73 0.96,0.96 2.28,1.55 3.73,1.55l10.38 -0c1.45,-0 2.77,-0.59 3.73,-1.55 0.96,-0.96 1.55,-2.28 1.55,-3.73l-0 -10.38c-0,-1.45 -0.59,-2.77 -1.55,-3.73 -0.96,-0.96 -2.28,-1.55 -3.73,-1.55zm-5.19 4.13c1.75,-0 3.34,0.71 4.49,1.86 1.15,1.15 1.86,2.73 1.86,4.49 0,1.75 -0.71,3.34 -1.86,4.49 -1.15,1.15 -2.73,1.86 -4.49,1.86 -1.75,0 -3.34,-0.71 -4.49,-1.86 -1.15,-1.15 -1.86,-2.73 -1.86,-4.49 -0,-1.75 0.71,-3.34 1.86,-4.49 1.15,-1.15 2.73,-1.86 4.49,-1.86zm3.13 3.22c-0.8,-0.8 -1.91,-1.29 -3.13,-1.29 -1.22,0 -2.33,0.5 -3.13,1.3 -0.8,0.8 -1.29,1.91 -1.29,3.13 0,1.22 0.5,2.33 1.3,3.13 0.8,0.8 1.91,1.29 3.13,1.29 1.22,-0 2.33,-0.5 3.13,-1.3 0.8,-0.8 1.29,-1.91 1.29,-3.13 -0,-1.22 -0.5,-2.33 -1.3,-3.13z"/>
 </g>
</svg>
