<?xml version="1.0" encoding="UTF-8"?>
<!DOCTYPE svg PUBLIC "-//W3C//DTD SVG 1.1//EN" "http://www.w3.org/Graphics/SVG/1.1/DTD/svg11.dtd">
<!-- Creator: CorelDRAW 2017 -->
<svg xmlns="http://www.w3.org/2000/svg" xml:space="preserve" width="862.971mm" height="201.765mm" version="1.1" style="shape-rendering:geometricPrecision; text-rendering:geometricPrecision; image-rendering:optimizeQuality; fill-rule:evenodd; clip-rule:evenodd"
viewBox="0 0 86442.44 20210.49"
 xmlns:xlink="http://www.w3.org/1999/xlink">
 <defs>
  <style type="text/css">
   <![CDATA[
    .fil1 {fill:#273061;fill-rule:nonzero}
    .fil0 {fill:#273061;fill-rule:nonzero}
   ]]>
  </style>
 </defs>
 <g id="Слой_x0020_1">
  <metadata id="CorelCorpID_0Corel-Layer"/>
  <path class="fil0" d="M30173.58 10693.94l0 808.7c0,442.08 -159.05,822.16 -477.13,1140.25 -318.09,318.09 -698.16,477.13 -1140.25,477.13l-1617.39 0c-442.08,0 -822.17,-159.05 -1140.26,-477.13 -318.09,-318.09 -477.12,-698.16 -477.12,-1140.25l0 -6469.54c0,-452.87 159.04,-835.66 477.12,-1148.35 318.09,-312.7 698.17,-469.04 1140.26,-469.04l1617.39 0c442.08,0 822.16,156.34 1140.25,469.04 318.09,312.7 477.13,695.48 477.13,1148.35l0 808.69 -1617.38 0 0 -420.53c0,-107.82 -40.44,-199.48 -121.3,-274.95 -80.88,-75.48 -175.22,-113.21 -283.05,-113.21l-808.69 0c-107.83,0 -202.18,37.73 -283.05,113.21 -80.87,75.48 -121.3,167.13 -121.3,274.95l0 5660.85c0,118.61 40.44,218.35 121.3,299.22 80.87,80.87 175.21,121.3 283.05,121.3l808.69 0c107.82,0 202.17,-40.44 283.05,-121.3 80.87,-80.88 121.3,-180.61 121.3,-299.22l0 -388.17 1617.38 0zm2911.3 -7278.23l4852.16 0 0 1617.39 -1617.39 0 0 8086.92 -1617.38 0 0 -8086.92 -1617.39 0 0 -1617.39zm9380.84 9704.31l-1617.38 0 0 -9704.31 3234.77 0c442.08,0 822.16,156.34 1140.25,469.04 318.09,312.7 477.13,695.48 477.13,1148.35l0 2830.42c0,398.95 -132.08,749.39 -396.26,1051.3 -264.17,301.92 -590.35,485.22 -978.53,549.91l-1859.99 16.17 0 3639.12zm1617.39 -7698.76c0,-107.82 -40.44,-199.48 -121.3,-274.95 -80.88,-75.48 -175.22,-113.21 -283.05,-113.21l-1213.04 0 0 2830.42 1213.04 0c107.82,0 202.17,-40.44 283.05,-121.3 80.87,-80.87 121.3,-175.21 121.3,-283.05l0 -2037.91zm6469.54 7698.76l-1617.38 0 0 -8086.92c0,-452.87 159.04,-835.66 477.12,-1148.35 318.09,-312.7 698.17,-469.04 1140.26,-469.04l1617.39 0c442.08,0 822.16,156.34 1140.25,469.04 318.09,312.7 477.13,695.48 477.13,1148.35l0 8086.92 -1617.38 0 0 -3234.77 -1617.39 0 0 3234.77zm1617.39 -4852.15l0 -2846.61c0,-107.82 -40.44,-199.48 -121.3,-274.95 -80.88,-75.48 -175.22,-113.21 -283.05,-113.21l-808.69 0c-107.83,0 -202.18,37.73 -283.05,113.21 -80.87,75.48 -121.3,167.13 -121.3,274.95l0 2846.61 1617.39 0zm7197.37 -1762.96l824.87 -3089.21 1682.08 0 -1293.91 4852.16 1293.91 4852.15 -1682.08 0 -824.87 -3105.38 -824.87 3105.38 -1682.08 0 1293.91 -4852.15 -1293.91 -4852.16 1682.08 0 824.87 3089.21zm8798.58 -3089.21c442.08,0 822.16,156.34 1140.25,469.04 318.09,312.7 477.13,695.48 477.13,1148.35l0 6469.54c0,442.08 -159.05,822.16 -477.13,1140.25 -318.09,318.09 -698.16,477.13 -1140.25,477.13l-1617.39 0c-442.08,0 -822.17,-159.05 -1140.26,-477.13 -318.09,-318.09 -477.12,-698.16 -477.12,-1140.25l0 -6469.54c0,-452.87 159.04,-835.66 477.12,-1148.35 318.09,-312.7 698.17,-469.04 1140.26,-469.04l1617.39 0zm0 2005.55c0,-107.82 -40.44,-199.48 -121.3,-274.95 -80.88,-75.48 -175.22,-113.21 -283.05,-113.21l-808.69 0c-107.83,0 -202.18,37.73 -283.05,113.21 -80.87,75.48 -121.3,167.13 -121.3,274.95l0 5660.85c0,118.61 40.44,218.35 121.3,299.22 80.87,80.87 175.21,121.3 283.05,121.3l808.69 0c107.82,0 202.17,-40.44 283.05,-121.3 80.87,-80.88 121.3,-180.61 121.3,-299.22l0 -5660.85zm4852.16 7698.76l0 -9704.31 3073.03 0c442.08,0 822.17,156.34 1140.26,469.04 318.09,312.7 477.12,695.49 477.12,1148.35l0 2005.55c0,452.86 -134.78,862.6 -404.34,1229.22 269.56,355.82 404.34,754.79 404.34,1196.86l0 2037.91c0,442.07 -159.04,822.16 -477.12,1140.25 -318.09,318.09 -698.18,477.13 -1140.26,477.13l-1455.65 0 -1617.38 0zm2506.95 -4043.46l-889.57 0 0 2426.08 1051.3 0c107.83,0 202.19,-40.44 283.05,-121.3 80.87,-80.87 121.3,-180.61 121.3,-299.22l0 -1455.65c0,-150.95 -56.61,-280.35 -169.83,-388.17 -113.21,-107.82 -245.31,-161.73 -396.26,-161.73zm-889.57 -4043.46l0 2426.07 889.57 0c150.95,0 283.04,-56.62 396.26,-169.83 113.21,-113.21 169.83,-250.69 169.83,-412.43l0 -1455.65c0,-107.82 -40.44,-199.48 -121.3,-274.95 -80.87,-75.48 -175.22,-113.21 -283.05,-113.21l-1051.3 0zm10189.53 4043.46c0,-107.83 -40.44,-202.18 -121.3,-283.05 -80.87,-80.87 -175.21,-121.3 -283.05,-121.3l-1213.03 0 0 2830.43 1213.03 0c107.83,0 202.18,-37.74 283.05,-113.22 80.87,-75.48 121.3,-167.13 121.3,-274.95l0 -2037.91zm-1617.38 -2021.73l1859.99 16.17c388.17,64.7 714.34,248.01 978.52,549.91 264.17,301.91 396.27,652.35 396.27,1051.3l0 2830.43c0,452.86 -159.05,835.65 -477.13,1148.34 -318.09,312.7 -698.17,469.04 -1140.26,469.04l-3234.77 0 0 -8086.92 -1617.38 0 0 -1617.39 3234.77 0 0 3639.12z"/>
  <path class="fil0" d="M36650.89 19699.77l0 -3344.98 2398.82 0 0 344.06 -2021.32 0 0 1027.38 989.15 0c375.91,0 681.74,82.04 917.48,246.09 235.74,164.07 353.61,406.97 353.61,728.74 0,321.75 -110.71,568.65 -332.11,740.67 -221.41,172.03 -521.66,258.04 -900.76,258.04l-1404.89 0zm377.5 -344.06l998.71 0c589.36,0 884.04,-224.59 884.04,-673.77 0,-207.07 -79.64,-362.37 -238.93,-465.9 -159.29,-103.53 -380.69,-155.3 -664.22,-155.3l-979.6 0 0 1294.98zm3312.92 344.06l0 -3344.98 377.5 0 0 2776.33 1997.43 -2776.33 358.39 0 0 3344.98 -372.73 0 0 -2776.33 -1992.65 2776.33 -367.95 0zm5095.32 57.35c-535.2,0 -1000.31,-179.99 -1395.34,-539.98l224.59 -262.82c337.69,318.58 729.53,477.85 1175.53,477.85 213.44,0 396.62,-59.73 549.52,-179.19 152.92,-119.46 229.38,-274.77 229.38,-465.91 0,-207.07 -82.83,-361.57 -248.49,-463.51 -165.66,-101.94 -383.88,-152.92 -654.66,-152.92l-367.95 0 0 -310.6 367.95 0c242.12,0 438.83,-56.55 590.15,-169.65 151.32,-113.09 226.98,-266.8 226.98,-461.13 0,-172.03 -70.88,-314.59 -212.65,-427.68 -141.76,-113.09 -322.55,-169.64 -542.36,-169.64 -375.91,0 -704.03,125.83 -984.38,377.5l-219.82 -262.82c175.21,-149.72 357.6,-261.23 547.15,-334.49 189.55,-73.27 411.74,-109.91 666.6,-109.91 331.32,0 602.09,84.42 812.36,253.27 210.25,168.84 315.38,382.28 315.38,640.33 0,379.1 -203.88,641.92 -611.66,788.46 213.45,63.72 383.88,164.07 511.31,301.05 127.42,136.99 191.14,310.6 191.14,520.87 0,270.78 -109.11,496.97 -327.33,678.55 -218.22,181.59 -499.36,272.38 -843.41,272.38zm2237.75 -57.35l0 -3344.98 377.5 0 0 1486.13 1930.53 0 0 -1486.13 377.5 0 0 3344.98 -377.5 0 0 -1505.24 -1930.53 0 0 1505.24 -377.5 0zm3938.92 0l0 -3344.98 2417.94 0 0 344.06 -2040.43 0 0 1142.07 1825.4 0 0 344.05 -1825.4 0 0 1170.74 2064.32 0 0 344.06 -2441.83 0zm5037.97 57.35c-481.04,0 -880.84,-166.46 -1199.42,-499.36 -318.57,-332.91 -477.85,-743.06 -477.85,-1230.47 0,-481.05 160.88,-889.61 482.63,-1225.7 321.76,-336.09 724.75,-504.14 1208.97,-504.14 280.34,0 519.27,45.4 716.79,136.19 197.51,90.79 390.25,225.39 578.2,403.79l-248.49 267.6c-321.75,-305.82 -672.18,-458.74 -1051.28,-458.74 -369.54,0 -677.76,132.2 -924.65,396.62 -246.9,264.41 -370.34,592.54 -370.34,984.39 0,388.65 124.25,715.97 372.73,981.98 248.49,266.01 555.91,399.01 922.26,399.01 216.62,0 407.77,-39.82 573.42,-119.46 165.66,-79.64 334.5,-200.7 506.52,-363.17l248.49 262.82c-187.96,187.96 -385.47,329.71 -592.54,425.29 -207.07,95.57 -455.56,143.36 -745.45,143.36zm2142.18 -1299.77l0 -387.06 1328.43 0 0 387.06 -1328.43 0zm2419.34 1242.42l0 -3344.98 377.5 0 0 1997.43 1920.97 -1997.43 487.41 0 -1433.56 1462.23 1495.69 1882.75 -473.08 0 -1285.43 -1619.92 -712 721.56 0 898.36 -377.5 0zm4235.18 57.35c-197.51,0 -385.47,-46.2 -563.87,-138.58l148.14 -301.05c124.24,66.9 266.01,100.35 425.29,100.35 270.79,0 493.78,-167.25 669,-501.74l-1471.79 -2561.3 430.06 0 1232.86 2183.79 1065.61 -2183.79 410.96 0 -1323.66 2642.53c-251.67,506.52 -592.54,759.79 -1022.61,759.79zm3298.59 -57.35l0 -3344.98 1251.98 0c382.28,0 686.51,95.57 912.71,286.71 226.18,191.14 339.27,452.37 339.27,783.68 0,347.24 -125.04,616.44 -375.11,807.58 -250.08,191.14 -563.08,286.71 -938.99,286.71l-812.35 0 0 1180.3 -377.5 0zm377.5 -1524.35l826.69 0c277.15,0 499.35,-67.69 666.6,-203.09 167.25,-135.39 250.87,-316.17 250.87,-542.36 0,-232.55 -80.44,-411.75 -241.32,-537.58 -160.88,-125.83 -379.89,-188.75 -657.05,-188.75l-845.8 0 0 1471.79zm4650.91 1581.7c-481.04,0 -880.84,-166.46 -1199.42,-499.36 -318.57,-332.91 -477.85,-743.06 -477.85,-1230.47 0,-481.05 160.88,-889.61 482.63,-1225.7 321.76,-336.09 724.75,-504.14 1208.97,-504.14 280.34,0 519.27,45.4 716.79,136.19 197.51,90.79 390.25,225.39 578.2,403.79l-248.49 267.6c-321.75,-305.82 -672.18,-458.74 -1051.28,-458.74 -369.54,0 -677.76,132.2 -924.65,396.62 -246.9,264.41 -370.34,592.54 -370.34,984.39 0,388.65 124.25,715.97 372.73,981.98 248.49,266.01 555.91,399.01 922.26,399.01 216.62,0 407.77,-39.82 573.42,-119.46 165.66,-79.64 334.5,-200.7 506.52,-363.17l248.49 262.82c-187.96,187.96 -385.47,329.71 -592.54,425.29 -207.07,95.57 -455.56,143.36 -745.45,143.36z"/>
  <path class="fil1" d="M8804.01 2551.84c2136.93,808.25 4555.13,863.87 6813.09,863.87l-0.03 6891.7c30.1,5732.01 -4436.59,7663.32 -8803.9,9903.08l-0.03 -17160.95c-1537,467.72 -3222.15,676.84 -4822.19,739.1l0.07 6526.54c-12.47,2382.38 895.97,4074.35 2817.45,5436.38l0 2360.09c-118.59,-68.49 -234.11,-136.49 -346.31,-204.04 -2905.61,-1749.38 -4480.06,-4151.41 -4461.99,-7600.21l-0.09 -8498.17c3768.58,0 5439.91,-153.76 8803.94,-1809.22l0 2551.84zm0 2104.17l0.01 12270.3c2772.33,-1542.75 4840.41,-3143.36 4822.19,-6611.13l0.02 -4920.05c-1600.13,-62.25 -3285.14,-271.42 -4822.22,-739.12z"/>
 </g>
</svg>
