<?xml version="1.0" encoding="UTF-8"?>
<!DOCTYPE svg PUBLIC "-//W3C//DTD SVG 1.1//EN" "http://www.w3.org/Graphics/SVG/1.1/DTD/svg11.dtd">
<!-- Creator: CorelDRAW 2019 (64-Bit) -->
<svg xmlns="http://www.w3.org/2000/svg" xml:space="preserve" width="291.394mm" height="123.825mm" version="1.1" style="shape-rendering:geometricPrecision; text-rendering:geometricPrecision; image-rendering:optimizeQuality; fill-rule:evenodd; clip-rule:evenodd"
viewBox="0 0 4445.06 1888.88"
 xmlns:xlink="http://www.w3.org/1999/xlink">
 <defs>
  <style type="text/css">
   <![CDATA[
    .fil2 {fill:#171E45}
    .fil1 {fill:#273061}
    .fil0 {fill:white}
   ]]>
  </style>
 </defs>
 <g id="Слой_x0020_1">
  <metadata id="CorelCorpID_0Corel-Layer"/>
  <g id="_2517535929664">
   <path class="fil0" d="M4445.06 0l-2815.83 0 0 310.37c883.1,349.29 1874.94,394.28 2815.83,398.63l0 -709z"/>
   <path class="fil1" d="M840.84 1888.88l-0 -1419.35c-272.19,81.13 -554.53,144.9 -840.84,194.22l0 1225.13 840.84 0z"/>
   <path class="fil1" d="M1630.36 1147.58l0 741.3 2175.64 0 0 -389.94c-721.93,-29.6 -1482.16,-129.03 -2175.65,-351.36z"/>
   <path class="fil2" d="M4445.06 668.72c-928.03,-4.1 -1906.32,-46.54 -2777.35,-375.99l0 -292.73 -1667.71 0 0 698.31c272.51,-47.93 541.25,-109.91 800.33,-188.74l0 1379.31 867.38 0 -0 -679.4c669.68,203.77 1403.8,294.9 2100.95,322.02l-0 357.38 676.4 0 0 -1220.16z"/>
  </g>
 </g>
</svg>
