<?xml version="1.0" encoding="UTF-8"?>
<!DOCTYPE svg PUBLIC "-//W3C//DTD SVG 1.1//EN" "http://www.w3.org/Graphics/SVG/1.1/DTD/svg11.dtd">
<!-- Creator: CorelDRAW 2019 (64-Bit) -->
<svg xmlns="http://www.w3.org/2000/svg" xml:space="preserve" width="8.4666mm" height="8.4666mm" version="1.1" style="shape-rendering:geometricPrecision; text-rendering:geometricPrecision; image-rendering:optimizeQuality; fill-rule:evenodd; clip-rule:evenodd"
viewBox="0 0 41.46 41.46"
 xmlns:xlink="http://www.w3.org/1999/xlink">
 <defs>
  <style type="text/css">
   <![CDATA[
    .fil0 {fill:#FEFEFE}
   ]]>
  </style>
 </defs>
 <g id="Слой_x0020_1">
  <metadata id="CorelCorpID_0Corel-Layer"/>
  <path class="fil0" d="M8.75 0.01l23.94 -0.01c4.82,-0 8.76,3.94 8.76,8.75l0.01 23.94c0,4.82 -3.94,8.76 -8.75,8.76l-23.94 0.01c-4.82,0 -8.76,-3.94 -8.76,-8.75l-0.01 -23.94c-0,-4.82 3.94,-8.76 8.75,-8.76zm23.66 28.98c-0.63,0.35 -3,0.13 -3.82,0.12 -1.65,-0.04 -1.74,-0.18 -2.88,-1.23 -1.41,-1.29 -2.54,-4.11 -3.18,-0.42 -0.13,0.72 0.04,1.16 -0.85,1.42 -0.52,0.15 -1.36,0.05 -1.92,0.04 -0.84,-0.01 -2.52,-0.39 -3.25,-0.79 -3.11,-1.72 -3.88,-3.14 -5.74,-6 -0.52,-0.81 -0.99,-1.77 -1.42,-2.63 -0.4,-0.81 -0.79,-1.63 -1.21,-2.44 -0.19,-0.36 -0.46,-0.98 -0.59,-1.36 -0.29,-0.91 0.17,-1.25 1.02,-1.3 0.52,-0.04 3.57,0.01 3.91,0.14 0.84,0.32 1.19,1.76 1.56,2.51 0.17,0.34 2.4,4.92 2.98,3.83 0.38,-0.73 0.61,-4.14 0.14,-4.81 -0.16,-0.22 -0.16,-0.28 -0.4,-0.42 -0.21,-0.1 -0.76,-0.14 -0.86,-0.38 -0.22,-0.53 0.83,-1.06 1.24,-1.14 0.54,-0.11 1.26,-0.14 1.82,-0.12 1.02,0.02 2.77,-0.12 3.51,0.66 0.91,0.97 -0.47,6.69 0.69,6.48 0.79,-0.14 2.76,-3.56 3.12,-4.33 0.18,-0.4 0.38,-1.05 0.61,-1.39 0.52,-0.75 0.89,-0.62 1.71,-0.6 1.19,0.03 2.69,-0.07 3.83,0.13 0.83,0.14 1.1,0.7 0.78,1.47 -0.15,0.35 -0.48,1.02 -0.7,1.31 -0.57,0.74 -1.02,1.55 -1.64,2.27 -0.57,0.67 -1.21,1.39 -1.66,2.15 -0.54,0.92 0.46,1.53 1.03,2.11 0.9,0.94 2.05,2.04 2.64,3.21 0.38,0.75 0.21,1.18 -0.5,1.56z"/>
 </g>
</svg>
